<svg xmlns='http://www.w3.org/2000/svg' style='font-size:initial;' class="pikchr" viewBox="0 0 575.24 444.168">
<path d="M9.66,114.984L205.58,114.984A7.5 7.5 0 0 0 213.08 107.484L213.08,71.076A7.5 7.5 0 0 0 205.58 63.576L9.66,63.576A7.5 7.5 0 0 0 2.16 71.076L2.16,107.484A7.5 7.5 0 0 0 9.66 114.984Z"  style="fill:none;stroke-width:2.16;stroke:rgb(255,255,255);" />
<text x="107.62" y="89.28" text-anchor="middle" fill="rgb(255,255,255)" dominant-baseline="central">ubuntu:22.04</text>
<path d="M369.66,114.984L565.58,114.984A7.5 7.5 0 0 0 573.08 107.484L573.08,71.076A7.5 7.5 0 0 0 565.58 63.576L369.66,63.576A7.5 7.5 0 0 0 362.16 71.076L362.16,107.484A7.5 7.5 0 0 0 369.66 114.984Z"  style="fill:none;stroke-width:2.16;stroke:rgb(255,255,255);" />
<text x="467.62" y="89.28" text-anchor="middle" fill="rgb(255,255,255)" dominant-baseline="central">ubuntu:22.04</text>
<text x="107.62" y="17.28" text-anchor="middle" fill="rgb(255,255,255)" dominant-baseline="central">Non-ROS Track</text>
<text x="467.62" y="17.28" text-anchor="middle" fill="rgb(255,255,255)" dominant-baseline="central">ROS Track</text>
<polygon points="107.62,172.584 103.3,161.064 111.94,161.064" style="fill:rgb(255,255,255)"/>
<path d="M107.62,114.984L107.62,166.824"  style="fill:none;stroke-width:2.16;stroke:rgb(255,255,255);" />
<path d="M56.3678,223.992L158.872,223.992A7.5 7.5 0 0 0 166.372 216.492L166.372,180.084A7.5 7.5 0 0 0 158.872 172.584L56.3678,172.584A7.5 7.5 0 0 0 48.8678 180.084L48.8678,216.492A7.5 7.5 0 0 0 56.3678 223.992Z"  style="fill:none;stroke-width:2.16;stroke:rgb(255,255,255);" />
<text x="107.62" y="198.288" text-anchor="middle" fill="rgb(255,255,255)" dominant-baseline="central">python</text>
<polygon points="107.62,281.592 103.3,270.072 111.94,270.072" style="fill:rgb(255,255,255)"/>
<path d="M107.62,223.992L107.62,275.832"  style="fill:none;stroke-width:2.16;stroke:rgb(255,255,255);" />
<path d="M80.1624,333L135.077,333A7.5 7.5 0 0 0 142.577 325.5L142.577,289.092A7.5 7.5 0 0 0 135.077 281.592L80.1624,281.592A7.5 7.5 0 0 0 72.6624 289.092L72.6624,325.5A7.5 7.5 0 0 0 80.1624 333Z"  style="fill:none;stroke-width:2.16;stroke:rgb(255,255,255);" />
<text x="107.62" y="307.296" text-anchor="middle" fill="rgb(255,255,255)" dominant-baseline="central">dev</text>
<polygon points="467.62,172.584 463.3,161.064 471.94,161.064" style="fill:rgb(255,255,255)"/>
<path d="M467.62,114.984L467.62,166.824"  style="fill:none;stroke-width:2.16;stroke:rgb(255,255,255);" />
<path d="M442.806,223.992L492.433,223.992A7.5 7.5 0 0 0 499.933 216.492L499.933,180.084A7.5 7.5 0 0 0 492.433 172.584L442.806,172.584A7.5 7.5 0 0 0 435.306 180.084L435.306,216.492A7.5 7.5 0 0 0 442.806 223.992Z"  style="fill:none;stroke-width:2.16;stroke:rgb(255,255,255);" />
<text x="467.62" y="198.288" text-anchor="middle" fill="rgb(255,255,255)" dominant-baseline="central">ros</text>
<polygon points="467.62,281.592 463.3,270.072 471.94,270.072" style="fill:rgb(255,255,255)"/>
<path d="M467.62,223.992L467.62,275.832"  style="fill:none;stroke-width:2.16;stroke:rgb(255,255,255);" />
<path d="M389.146,333L546.094,333A7.5 7.5 0 0 0 553.594 325.5L553.594,289.092A7.5 7.5 0 0 0 546.094 281.592L389.146,281.592A7.5 7.5 0 0 0 381.646 289.092L381.646,325.5A7.5 7.5 0 0 0 389.146 333Z"  style="fill:none;stroke-width:2.16;stroke:rgb(255,255,255);" />
<text x="467.62" y="307.296" text-anchor="middle" fill="rgb(255,255,255)" dominant-baseline="central">ros-python</text>
<polygon points="467.62,390.6 463.3,379.08 471.94,379.08" style="fill:rgb(255,255,255)"/>
<path d="M467.62,333L467.62,384.84"  style="fill:none;stroke-width:2.16;stroke:rgb(255,255,255);" />
<path d="M412.941,442.008L522.299,442.008A7.5 7.5 0 0 0 529.799 434.508L529.799,398.1A7.5 7.5 0 0 0 522.299 390.6L412.941,390.6A7.5 7.5 0 0 0 405.441 398.1L405.441,434.508A7.5 7.5 0 0 0 412.941 442.008Z"  style="fill:none;stroke-width:2.16;stroke:rgb(255,255,255);" />
<text x="467.62" y="416.304" text-anchor="middle" fill="rgb(255,255,255)" dominant-baseline="central">ros-dev</text>
<path d="M166.372,198.288L209.572,198.288L209.572,307.296L381.646,307.296"  style="fill:none;stroke-width:2.16;stroke-linejoin:round;stroke:rgb(255,255,255);stroke-dasharray:7.2,7.2;" />
<path d="M142.577,307.296L185.777,307.296L185.777,416.304L405.441,416.304"  style="fill:none;stroke-width:2.16;stroke-linejoin:round;stroke:rgb(255,255,255);stroke-dasharray:7.2,7.2;" />
<text x="315.377" y="249.696" text-anchor="middle" fill="rgb(255,255,255)" dominant-baseline="central">same dockerfiles</text>
</svg>
