<svg xmlns="http://www.w3.org/2000/svg" viewBox="0 0 535 100">
  <style>
    .logo { fill: currentColor; }
  </style>
  <g class="logo">
    <path d="svg6"/>
    <path d="defs6"/>
    <path d="style1"/>
    <path d="text6"/>
    <path d="M 18.00293,28.50293 H 12.001953 V 17.174805 h 6.000977 z m 6.000976,0 H 18.00293 V 17.174805 h 6.000976 z m 6.000977,0 H 24.003906 V 17.174805 h 6.000977 z m 6.000976,0 H 30.004883 V 17.174805 h 6.000976 z m 6.000977,0 H 36.005859 V 17.174805 h 6.000977 z m 6.000976,0 H 42.006836 V 17.174805 h 6.000976 z m 4.233399,-7.299805 v 7.299805 h -0.708008 v -6.591797 h -3.574219 v -0.708008 z m -1.757813,7.299805 h -0.708007 v -4.833985 h -1.816407 v -0.708008 h 2.524414 z m 15.527344,0 H 60.009766 V 17.174805 h 6.000976 z m 6.000977,0 H 66.010742 V 17.174805 h 6.000977 z m 4.233398,-7.299805 v 7.299805 h -0.708008 v -6.591797 h -3.574218 v -0.708008 z m -1.757812,7.299805 h -0.708008 v -4.833985 h -1.816406 v -0.708008 h 2.524414 z m 9.526367,0 H 78.012695 V 17.174805 h 6.000977 z m 6.000976,0 H 84.013672 V 17.174805 h 6.000976 z m 6.000977,0 H 90.014648 V 17.174805 h 6.000977 z m 4.233395,-7.299805 v 7.299805 h -0.708004 v -6.591797 h -3.574219 v -0.708008 z m -1.757809,7.299805 h -0.708008 v -4.833985 h -1.816406 v -0.708008 h 2.524414 z m 27.529299,0 h -6.00098 V 17.174805 h 6.00098 z m 6.00097,0 h -6.00097 V 17.174805 h 6.00097 z m 6.00098,0 h -6.00098 V 17.174805 h 6.00098 z m 4.2334,-7.299805 v 7.299805 h -0.70801 v -6.591797 h -3.57422 v -0.708008 z m -1.75781,7.299805 h -0.70801 v -4.833985 h -1.81641 v -0.708008 h 2.52442 z m 9.52636,0 h -6.00097 V 17.174805 h 6.00097 z m 6.00098,0 h -6.00098 V 17.174805 h 6.00098 z m 6.00098,0 h -6.00098 V 17.174805 h 6.00098 z m 6.00097,0 h -6.00097 V 17.174805 h 6.00097 z m 6.00098,0 h -6.00098 V 17.174805 h 6.00098 z m 6.00098,0 h -6.00098 V 17.174805 h 6.00098 z m 6.00097,0 H 180.0293 V 17.174805 h 6.00097 z m 4.2334,-7.299805 v 7.299805 h -0.70801 v -6.591797 h -3.57421 v -0.708008 z m -1.75781,7.299805 h -0.70801 v -4.833985 h -1.8164 v -0.708008 h 2.52441 z m 9.52637,0 h -6.00098 V 17.174805 h 6.00098 z m 6.00097,0 h -6.00097 V 17.174805 h 6.00097 z m 6.00098,0 H 204.0332 V 17.174805 h 6.00098 z m 4.2334,-7.299805 v 7.299805 h -0.70801 v -6.591797 h -3.57422 v -0.708008 z m -1.75781,7.299805 h -0.70801 v -4.833985 h -1.81641 v -0.708008 h 2.52442 z m 27.52929,0 h -6.00097 V 17.174805 h 6.00097 z m 6.00098,0 h -6.00098 V 17.174805 h 6.00098 z m 4.2334,-7.299805 v 7.299805 h -0.70801 v -6.591797 h -3.57422 v -0.708008 z m -1.75782,7.299805 h -0.708 v -4.833985 h -1.81641 v -0.708008 h 2.52441 z m 9.52637,0 h -6.00097 V 17.174805 h 6.00097 z m 6.00098,0 h -6.00098 V 17.174805 h 6.00098 z m 6.00098,0 h -6.00098 V 17.174805 h 6.00098 z m 6.00097,0 h -6.00097 V 17.174805 h 6.00097 z m 6.00098,0 h -6.00098 V 17.174805 h 6.00098 z m 6.00097,0 H 282.0459 V 17.174805 h 6.00097 z m 6.00098,0 h -6.00098 V 17.174805 h 6.00098 z m 4.2334,-7.299805 v 7.299805 h -0.70801 v -6.591797 h -3.57422 v -0.708008 z m -1.75781,7.299805 h -0.70801 v -4.833985 h -1.81641 v -0.708008 h 2.52442 z m 9.52636,0 h -6.00097 V 17.174805 h 6.00097 z m 6.00098,0 H 306.0498 V 17.174805 h 6.00098 z m 4.2334,-7.299805 v 7.299805 h -0.70801 v -6.591797 h -3.57422 v -0.708008 z m -1.75781,7.299805 h -0.70801 v -4.833985 h -1.81641 v -0.708008 h 2.52442 z m 15.52734,0 h -6.00098 V 17.174805 h 6.00098 z m 6.00098,0 h -6.00098 V 17.174805 h 6.00098 z m 6.00097,0 h -6.00097 V 17.174805 h 6.00097 z m 6.00098,0 h -6.00098 V 17.174805 h 6.00098 z m 6.00098,0 h -6.00098 V 17.174805 h 6.00098 z m 6.00097,0 h -6.00097 V 17.174805 h 6.00097 z m 4.2334,-7.299805 v 7.299805 h -0.70801 v -6.591797 h -3.57421 v -0.708008 z m -1.75781,7.299805 h -0.70801 v -4.833985 h -1.8164 v -0.708008 h 2.52441 z m 15.52734,0 h -6.00097 V 17.174805 h 6.00097 z m 6.00098,0 h -6.00098 V 17.174805 h 6.00098 z m 6.00098,0 H 384.0625 V 17.174805 h 6.00098 z m 4.23339,-7.299805 v 7.299805 h -0.708 v -6.591797 h -3.57422 v -0.708008 z m -1.75781,7.299805 h -0.70801 v -4.833985 h -1.8164 v -0.708008 h 2.52441 z m 27.5293,0 h -6.00098 V 17.174805 h 6.00098 z m 6.00098,0 h -6.00098 V 17.174805 h 6.00098 z m 4.23339,-7.299805 v 7.299805 h -0.708 v -6.591797 h -3.57422 v -0.708008 z m -1.75781,7.299805 h -0.70801 v -4.833985 h -1.8164 v -0.708008 h 2.52441 z m 15.52735,0 h -6.00098 V 17.174805 h 6.00098 z m 6.00097,0 h -6.00097 V 17.174805 h 6.00097 z m 6.00098,0 h -6.00098 V 17.174805 h 6.00098 z m 6.00098,0 h -6.00098 V 17.174805 h 6.00098 z m 6.00097,0 H 462.0752 V 17.174805 h 6.00097 z m 4.2334,-7.299805 v 7.299805 h -0.70801 v -6.591797 h -3.57422 v -0.708008 z m -1.75781,7.299805 h -0.70801 v -4.833985 h -1.81641 v -0.708008 h 2.52442 z m 15.52734,0 h -6.00098 V 17.174805 h 6.00098 z m 6.00098,0 H 486.0791 V 17.174805 h 6.00098 z m 4.2334,-7.299805 v 7.299805 h -0.70801 v -6.591797 h -3.57422 v -0.708008 z m -1.75782,7.299805 h -0.708 v -4.833985 h -1.81641 v -0.708008 h 2.52441 z"/>
    <path d="path6"/>
    <path d="M 18.00293,41.00293 H 12.001953 V 29.674805 h 6.000977 z m 6.000976,0 H 18.00293 V 29.674805 h 6.000976 z m 1.767578,-7.299805 h 4.282227 v 0.708008 h -3.574219 v 6.591797 h -0.708008 z m 1.757813,1.757812 h 2.524414 v 0.708008 h -1.816406 v 4.833985 h -0.708008 z m 2.426758,-1.049804 v -0.708008 h 6.098632 v 0.708008 z m 0,1.757812 v -0.708008 h 6.098632 v 0.708008 z m 6.000976,-1.757812 v -0.708008 h 6.098633 v 0.708008 z m 0,1.757812 v -0.708008 h 6.098633 v 0.708008 z M 48.007812,41.00293 H 42.006836 V 29.674805 h 6.000976 z m 6.000977,0 H 48.007812 V 29.674805 h 6.000977 z m 4.233398,-7.299805 V 41.00293 H 57.53418 v -6.591797 h -3.574219 v -0.708008 z m -1.757812,7.299805 h -0.708008 v -4.833985 h -1.816406 v -0.708008 h 2.524414 z m 9.526367,0 H 60.009766 V 29.674805 h 6.000976 z m 6.000977,0 H 66.010742 V 29.674805 h 6.000977 z m 1.767578,-11.328125 h 0.708008 V 41.00293 h -0.708008 z m 1.757812,0 h 0.708008 V 41.00293 H 75.537109 Z M 84.013672,41.00293 H 78.012695 V 29.674805 h 6.000977 z m 6.000976,0 H 84.013672 V 29.674805 h 6.000976 z m 6.000977,0 H 90.014648 V 29.674805 h 6.000977 z m 6.000975,0 H 96.015625 V 29.674805 h 6.000975 z m 4.2334,-7.299805 v 7.299805 h -0.70801 v -6.591797 h -3.57422 v -0.708008 z m -1.75781,7.299805 h -0.70801 v -4.833985 h -1.81641 v -0.708008 h 2.52442 z m 15.52734,0 h -6.00098 V 29.674805 h 6.00098 z m 6.00098,0 h -6.00098 V 29.674805 h 6.00098 z m 6.00097,0 h -6.00097 V 29.674805 h 6.00097 z m 6.00098,0 h -6.00098 V 29.674805 h 6.00098 z m 1.76758,-11.328125 h 0.70801 V 41.00293 h -0.70801 z m 1.75781,0 h 0.70801 V 41.00293 h -0.70801 z m 8.47656,11.328125 h -6.00097 V 29.674805 h 6.00097 z m 6.00098,0 h -6.00098 V 29.674805 h 6.00098 z m 1.76758,-7.299805 h 4.28223 v 0.708008 h -3.57422 v 6.591797 h -0.70801 z m 1.75781,1.757812 h 2.52442 v 0.708008 h -1.81641 v 4.833985 h -0.70801 z m 2.42676,-1.049804 v -0.708008 h 6.09863 v 0.708008 z m 0,1.757812 v -0.708008 h 6.09863 v 0.708008 z m 6.00098,-1.757812 v -0.708008 h 6.09863 v 0.708008 z m 0,1.757812 v -0.708008 h 6.09863 v 0.708008 z m 6.00097,-1.757812 v -0.708008 h 6.09863 v 0.708008 z m 0,1.757812 v -0.708008 h 6.09863 v 0.708008 z m 6.00098,-1.757812 v -0.708008 h 6.09863 v 0.708008 z m 0,1.757812 v -0.708008 h 6.09863 v 0.708008 z m 10.2832,0 h -4.28222 v -0.708008 h 3.57421 v -5.786132 h 0.70801 z m -2.46582,-6.49414 h 0.70801 v 4.736328 h -2.52441 v -0.708008 h 1.8164 z m 10.23438,11.328125 h -6.00098 V 29.674805 h 6.00098 z m 6.00097,0 h -6.00097 V 29.674805 h 6.00097 z m 6.00098,0 H 204.0332 V 29.674805 h 6.00098 z m 6.00098,0 h -6.00098 V 29.674805 h 6.00098 z m 4.23339,-7.299805 v 7.299805 h -0.708 v -6.591797 h -3.57422 v -0.708008 z m -1.75781,7.299805 h -0.70801 v -4.833985 h -1.8164 v -0.708008 h 2.52441 z m 21.52832,0 h -6.00097 V 29.674805 h 6.00097 z m 6.00098,0 h -6.00098 V 29.674805 h 6.00098 z m 1.76758,-11.328125 h 0.708 V 41.00293 h -0.708 z m 1.75781,0 h 0.70801 V 41.00293 h -0.70801 z m 8.47656,11.328125 h -6.00097 V 29.674805 h 6.00097 z m 6.00098,0 h -6.00098 V 29.674805 h 6.00098 z m 1.76758,-7.299805 h 4.28222 v 0.708008 h -3.57422 v 6.591797 h -0.708 z m 1.75781,1.757812 h 2.52441 v 0.708008 h -1.8164 v 4.833985 h -0.70801 z m 2.42676,-1.049804 v -0.708008 h 6.09863 v 0.708008 z m 0,1.757812 v -0.708008 h 6.09863 v 0.708008 z m 6.00097,-1.757812 v -0.708008 h 6.09864 v 0.708008 z m 0,1.757812 v -0.708008 h 6.09864 v 0.708008 z m 6.00098,-1.757812 v -0.708008 h 6.09863 v 0.708008 z m 0,1.757812 v -0.708008 h 6.09863 v 0.708008 z m 6.00098,-1.757812 v -0.708008 h 6.09863 v 0.708008 z m 0,1.757812 v -0.708008 h 6.09863 v 0.708008 z m 10.2832,0 h -4.28223 v -0.708008 h 3.57422 v -5.786132 h 0.70801 z m -2.46582,-6.49414 h 0.70801 v 4.736328 h -2.52442 v -0.708008 h 1.81641 z M 306.0498,41.00293 h -6.00097 V 29.674805 h 6.00097 z m 6.00098,0 H 306.0498 V 29.674805 h 6.00098 z m 1.76758,-11.328125 h 0.70801 V 41.00293 h -0.70801 z m 1.75781,0 h 0.70801 V 41.00293 h -0.70801 z m 8.47656,11.328125 h -6.00097 V 29.674805 h 6.00097 z m 6.00098,0 h -6.00098 V 29.674805 h 6.00098 z m 1.76758,-7.299805 h 4.28223 v 0.708008 h -3.57422 v 6.591797 h -0.70801 z m 1.75781,1.757812 h 2.52442 v 0.708008 h -1.81641 v 4.833985 h -0.70801 z m 2.42676,-1.049804 v -0.708008 h 6.09863 v 0.708008 z m 0,1.757812 v -0.708008 h 6.09863 v 0.708008 z m 6.00098,-1.757812 v -0.708008 h 6.09863 v 0.708008 z m 0,1.757812 v -0.708008 h 6.09863 v 0.708008 z m 6.00097,-1.757812 v -0.708008 h 6.09864 v 0.708008 z m 0,1.757812 v -0.708008 h 6.09864 v 0.708008 z m 12.05078,4.833985 h -6.00097 V 29.674805 h 6.00097 z m 6.00098,0 h -6.00098 V 29.674805 h 6.00098 z m 4.2334,-7.299805 v 7.299805 h -0.70801 v -6.591797 h -3.57422 v -0.708008 z m -1.75781,7.299805 h -0.70801 v -4.833985 h -1.81641 v -0.708008 h 2.52442 z m 9.52636,0 h -6.00097 V 29.674805 h 6.00097 z m 6.00098,0 h -6.00098 V 29.674805 h 6.00098 z m 6.00098,0 H 384.0625 V 29.674805 h 6.00098 z m 6.00097,0 h -6.00097 V 29.674805 h 6.00097 z m 4.2334,-7.299805 v 7.299805 h -0.70801 v -6.591797 h -3.57422 v -0.708008 z m -1.75781,7.299805 h -0.70801 v -4.833985 h -1.81641 v -0.708008 h 2.52442 z m 21.52832,0 h -6.00098 V 29.674805 h 6.00098 z m 6.00098,0 h -6.00098 V 29.674805 h 6.00098 z m 1.76757,-11.328125 h 0.70801 V 41.00293 h -0.70801 z m 1.75782,0 h 0.708 V 41.00293 h -0.708 z m 8.47656,11.328125 h -6.00098 V 29.674805 h 6.00098 z m 6.00098,0 h -6.00098 V 29.674805 h 6.00098 z m 1.76757,-7.299805 h 4.28223 v 0.708008 h -3.57422 v 6.591797 h -0.70801 z m 1.75782,1.757812 h 2.52441 v 0.708008 h -1.81641 v 4.833985 h -0.708 z m 2.42675,-1.049804 v -0.708008 h 6.09864 v 0.708008 z m 0,1.757812 v -0.708008 h 6.09864 v 0.708008 z m 6.00098,-1.757812 v -0.708008 h 6.09863 v 0.708008 z m 0,1.757812 v -0.708008 h 6.09863 v 0.708008 z m 12.05078,4.833985 H 462.0752 V 29.674805 h 6.00097 z m 6.00098,0 h -6.00098 V 29.674805 h 6.00098 z m 4.2334,-7.299805 v 7.299805 h -0.70801 v -6.591797 h -3.57422 v -0.708008 z m -1.75782,7.299805 h -0.708 v -4.833985 h -1.81641 v -0.708008 h 2.52441 z m 9.52637,0 h -6.00098 V 29.674805 h 6.00098 z m 6.00098,0 H 486.0791 V 29.674805 h 6.00098 z m 1.76758,-11.328125 h 0.708 V 41.00293 h -0.708 z m 1.75781,0 h 0.70801 V 41.00293 h -0.70801 z"/>
    <path d="path7"/>
    <path d="M 18.00293,53.50293 H 12.001953 V 42.174805 h 6.000977 z m 6.000976,0 H 18.00293 V 42.174805 h 6.000976 z m 1.767578,-11.328125 h 0.708008 V 53.50293 h -0.708008 z m 1.757813,0 h 0.708008 V 53.50293 H 27.529297 Z M 48.007812,53.50293 H 42.006836 V 42.174805 h 6.000976 z m 6.000977,0 H 48.007812 V 42.174805 h 6.000977 z m 1.767578,-11.328125 h 0.708008 V 53.50293 h -0.708008 z m 1.757813,0 h 0.708007 V 53.50293 H 57.53418 Z M 66.010742,53.50293 H 60.009766 V 42.174805 h 6.000976 z m 6.000977,0 H 66.010742 V 42.174805 h 6.000977 z m 1.767578,-11.328125 h 0.708008 V 53.50293 h -0.708008 z m 1.757812,0 h 0.708008 V 53.50293 H 75.537109 Z M 84.013672,53.50293 H 78.012695 V 42.174805 h 6.000977 z m 6.000976,0 H 84.013672 V 42.174805 h 6.000976 z m 1.767579,-7.299805 h 4.282226 v 0.708008 h -3.574219 v 6.591797 h -0.708007 z m 1.757812,1.757812 h 2.524414 v 0.708008 H 94.248047 V 53.50293 H 93.540039 Z M 102.0166,53.50293 H 96.015625 V 42.174805 h 6.000975 z m 6.00098,0 H 102.0166 V 42.174805 h 6.00098 z m 6.00097,0 h -6.00097 V 42.174805 h 6.00097 z m 6.00098,0 h -6.00098 V 42.174805 h 6.00098 z m 1.76758,-7.299805 h 4.28223 v 0.708008 h -3.57422 v 6.591797 h -0.70801 z m 1.75781,1.757812 h 2.52442 v 0.708008 h -1.81641 v 4.833985 h -0.70801 z m 8.47656,5.541993 h -6.00097 V 42.174805 h 6.00097 z m 6.00098,0 h -6.00098 V 42.174805 h 6.00098 z m 1.76758,-11.328125 h 0.70801 V 53.50293 h -0.70801 z m 1.75781,0 h 0.70801 V 53.50293 h -0.70801 z m 8.47656,11.328125 h -6.00097 V 42.174805 h 6.00097 z m 6.00098,0 h -6.00098 V 42.174805 h 6.00098 z m 6.00098,0 h -6.00098 V 42.174805 h 6.00098 z m 6.00097,0 h -6.00097 V 42.174805 h 6.00097 z m 6.00098,0 h -6.00098 V 42.174805 h 6.00098 z m 4.2334,-7.299805 v 7.299805 h -0.70801 v -6.591797 h -3.57422 v -0.708008 z m -1.75781,7.299805 h -0.70801 v -4.833985 h -1.81641 v -0.708008 h 2.52442 z m 21.52832,0 h -6.00098 V 42.174805 h 6.00098 z m 6.00097,0 h -6.00097 V 42.174805 h 6.00097 z m 1.76758,-7.299805 h 4.28223 v 0.708008 h -3.57422 v 6.591797 h -0.70801 z m 1.75781,1.757812 h 2.52442 v 0.708008 h -1.81641 v 4.833985 h -0.70801 z m 8.47657,5.541993 h -6.00098 V 42.174805 h 6.00098 z m 6.00097,0 h -6.00097 V 42.174805 h 6.00097 z m 4.2334,-7.299805 v 7.299805 h -0.70801 v -6.591797 h -3.57422 v -0.708008 z m -1.75781,7.299805 h -0.70801 v -4.833985 h -1.81641 v -0.708008 h 2.52442 z m 15.52734,0 h -6.00097 V 42.174805 h 6.00097 z m 6.00098,0 h -6.00098 V 42.174805 h 6.00098 z m 1.76758,-11.328125 h 0.708 V 53.50293 h -0.708 z m 1.75781,0 h 0.70801 V 53.50293 h -0.70801 z m 8.47656,11.328125 h -6.00097 V 42.174805 h 6.00097 z m 6.00098,0 h -6.00098 V 42.174805 h 6.00098 z m 6.00098,0 h -6.00098 V 42.174805 h 6.00098 z m 6.00097,0 h -6.00097 V 42.174805 h 6.00097 z m 6.00098,0 h -6.00098 V 42.174805 h 6.00098 z m 6.00097,0 H 282.0459 V 42.174805 h 6.00097 z m 6.00098,0 h -6.00098 V 42.174805 h 6.00098 z m 4.2334,-7.299805 v 7.299805 h -0.70801 v -6.591797 h -3.57422 v -0.708008 z m -1.75781,7.299805 h -0.70801 v -4.833985 h -1.81641 v -0.708008 h 2.52442 z m 9.52636,0 h -6.00097 V 42.174805 h 6.00097 z m 6.00098,0 H 306.0498 V 42.174805 h 6.00098 z m 1.76758,-11.328125 h 0.70801 V 53.50293 h -0.70801 z m 1.75781,0 h 0.70801 V 53.50293 h -0.70801 z m 8.47656,11.328125 h -6.00097 V 42.174805 h 6.00097 z m 6.00098,0 h -6.00098 V 42.174805 h 6.00098 z m 1.76758,-11.328125 h 0.70801 V 53.50293 h -0.70801 z m 1.75781,0 h 0.70801 V 53.50293 h -0.70801 z m 26.47949,11.328125 h -6.00097 V 42.174805 h 6.00097 z m 6.00098,0 h -6.00098 V 42.174805 h 6.00098 z m 1.76758,-11.328125 h 0.70801 V 53.50293 h -0.70801 z m 1.75781,0 h 0.70801 V 53.50293 h -0.70801 z m 8.47656,11.328125 h -6.00097 V 42.174805 h 6.00097 z m 6.00098,0 h -6.00098 V 42.174805 h 6.00098 z m 1.76758,-7.299805 h 4.28222 v 0.708008 h -3.57421 v 6.591797 h -0.70801 z m 1.75781,1.757812 h 2.52441 v 0.708008 h -1.8164 v 4.833985 h -0.70801 z m 8.47656,5.541993 h -6.00097 V 42.174805 h 6.00097 z m 6.00098,0 h -6.00098 V 42.174805 h 6.00098 z m 4.2334,-7.299805 v 7.299805 h -0.70801 v -6.591797 h -3.57422 v -0.708008 z m -1.75781,7.299805 h -0.70801 v -4.833985 h -1.81641 v -0.708008 h 2.52442 z m 15.52734,0 h -6.00098 V 42.174805 h 6.00098 z m 6.00098,0 h -6.00098 V 42.174805 h 6.00098 z m 1.76757,-11.328125 h 0.70801 V 53.50293 h -0.70801 z m 1.75782,0 h 0.708 V 53.50293 h -0.708 z m 8.47656,11.328125 h -6.00098 V 42.174805 h 6.00098 z m 6.00098,0 h -6.00098 V 42.174805 h 6.00098 z m 6.00097,0 h -6.00097 V 42.174805 h 6.00097 z m 6.00098,0 h -6.00098 V 42.174805 h 6.00098 z m 6.00098,0 h -6.00098 V 42.174805 h 6.00098 z m 6.00097,0 H 462.0752 V 42.174805 h 6.00097 z m 6.00098,0 h -6.00098 V 42.174805 h 6.00098 z m 1.76758,-11.328125 h 0.708 V 53.50293 h -0.708 z m 1.75781,0 h 0.70801 V 53.50293 h -0.70801 z m 8.47656,11.328125 h -6.00098 V 42.174805 h 6.00098 z m 6.00098,0 H 486.0791 V 42.174805 h 6.00098 z m 1.76758,-11.328125 h 0.708 V 53.50293 h -0.708 z m 1.75781,0 h 0.70801 V 53.50293 h -0.70801 z"/>
    <path d="path8"/>
    <path d="M 18.00293,66.00293 H 12.001953 V 54.674805 h 6.000977 z m 6.000976,0 H 18.00293 V 54.674805 h 6.000976 z m 1.767578,-11.328125 h 0.708008 V 66.00293 h -0.708008 z m 1.757813,0 h 0.708008 V 66.00293 H 27.529297 Z M 48.007812,66.00293 H 42.006836 V 54.674805 h 6.000976 z m 6.000977,0 H 48.007812 V 54.674805 h 6.000977 z m 1.767578,-11.328125 h 0.708008 V 66.00293 h -0.708008 z m 1.757813,0 h 0.708007 V 66.00293 H 57.53418 Z M 66.010742,66.00293 H 60.009766 V 54.674805 h 6.000976 z m 6.000977,0 H 66.010742 V 54.674805 h 6.000977 z m 1.767578,-11.328125 h 0.708008 V 66.00293 h -0.708008 z m 1.757812,0 h 0.708008 V 66.00293 H 75.537109 Z M 84.013672,66.00293 H 78.012695 V 54.674805 h 6.000977 z m 6.000976,0 H 84.013672 V 54.674805 h 6.000976 z m 1.767579,-11.328125 h 0.708007 V 66.00293 h -0.708007 z m 1.757812,0 h 0.708008 V 66.00293 h -0.708008 z m 4.243164,0 h 0.708008 v 5.786132 h 3.574219 v 0.708008 h -4.282227 z m 1.757813,0 h 0.708004 v 4.02832 h 1.81641 v 0.708008 H 99.541016 Z M 108.01758,66.00293 H 102.0166 V 54.674805 h 6.00098 z m 6.00097,0 h -6.00097 V 54.674805 h 6.00097 z m 1.76758,-7.299805 h 4.28223 v 0.708008 h -3.57422 v 6.591797 h -0.70801 z m 1.75782,1.757812 h 2.52441 v 0.708008 h -1.81641 v 4.833985 h -0.708 z m 6.70898,0.708008 h -4.28223 v -0.708008 h 3.57422 v -5.786132 h 0.70801 z m -2.46582,-6.49414 h 0.70801 v 4.736328 h -2.52442 v -0.708008 h 1.81641 z m 10.23437,11.328125 h -6.00097 V 54.674805 h 6.00097 z m 6.00098,0 h -6.00098 V 54.674805 h 6.00098 z m 1.76758,-11.328125 h 0.70801 V 66.00293 h -0.70801 z m 1.75781,0 h 0.70801 V 66.00293 h -0.70801 z m 8.47656,11.328125 h -6.00097 V 54.674805 h 6.00097 z m 6.00098,0 h -6.00098 V 54.674805 h 6.00098 z m 1.76758,-7.299805 h 4.28223 v 0.708008 h -3.57422 v 6.591797 h -0.70801 z m 1.75781,1.757812 h 2.52442 v 0.708008 h -1.81641 v 4.833985 h -0.70801 z m 2.42676,-1.049804 v -0.708008 h 6.09863 v 0.708008 z m 0,1.757812 v -0.708008 h 6.09863 v 0.708008 z m 6.00098,-1.757812 v -0.708008 h 6.09863 v 0.708008 z m 0,1.757812 v -0.708008 h 6.09863 v 0.708008 z m 10.2832,0 h -4.28223 v -0.708008 h 3.57422 v -5.786132 h 0.70801 z m -2.46582,-6.49414 h 0.70801 v 4.736328 h -2.52442 v -0.708008 h 1.81641 z m 22.23633,11.328125 h -6.00098 V 54.674805 h 6.00098 z m 6.00097,0 h -6.00097 V 54.674805 h 6.00097 z m 1.76758,-11.328125 h 0.70801 V 66.00293 h -0.70801 z m 1.75781,0 h 0.70801 V 66.00293 h -0.70801 z m 4.24317,0 h 0.70801 v 5.786132 h 3.57421 v 0.708008 h -4.28222 z m 1.75781,0 h 0.70801 v 4.02832 h 1.8164 v 0.708008 h -2.52441 z m 8.47656,11.328125 h -6.00097 V 54.674805 h 6.00097 z m 6.00098,0 h -6.00098 V 54.674805 h 6.00098 z m 4.2334,-7.299805 v 7.299805 h -0.70801 v -6.591797 h -3.57422 v -0.708008 z m -1.75781,7.299805 h -0.70801 v -4.833985 h -1.81641 v -0.708008 h 2.52442 z m 9.52636,0 h -6.00097 V 54.674805 h 6.00097 z m 6.00098,0 h -6.00098 V 54.674805 h 6.00098 z m 1.76758,-11.328125 h 0.708 V 66.00293 h -0.708 z m 1.75781,0 h 0.70801 V 66.00293 h -0.70801 z m 4.24316,0 h 0.70801 v 5.786132 h 3.57422 v 0.708008 h -4.28223 z m 1.75782,0 h 0.708 v 4.02832 h 1.81641 v 0.708008 h -2.52441 z m 2.42675,4.736328 v -0.708008 h 6.09864 v 0.708008 z m 0,1.757812 v -0.708008 h 6.09864 v 0.708008 z m 6.00098,-1.757812 v -0.708008 h 6.09863 v 0.708008 z m 0,1.757812 v -0.708008 h 6.09863 v 0.708008 z m 6.00098,-1.757812 v -0.708008 h 6.09863 v 0.708008 z m 0,1.757812 v -0.708008 h 6.09863 v 0.708008 z m 6.00097,-1.757812 v -0.708008 h 6.09864 v 0.708008 z m 0,1.757812 v -0.708008 h 6.09864 v 0.708008 z m 12.05078,4.833985 H 282.0459 V 54.674805 h 6.00097 z m 6.00098,0 h -6.00098 V 54.674805 h 6.00098 z m 1.76758,-11.328125 h 0.70801 V 66.00293 h -0.70801 z m 1.75781,0 h 0.70801 V 66.00293 h -0.70801 z m 8.47656,11.328125 h -6.00097 V 54.674805 h 6.00097 z m 6.00098,0 H 306.0498 V 54.674805 h 6.00098 z m 1.76758,-11.328125 h 0.70801 V 66.00293 h -0.70801 z m 1.75781,0 h 0.70801 V 66.00293 h -0.70801 z m 8.47656,11.328125 h -6.00097 V 54.674805 h 6.00097 z m 6.00098,0 h -6.00098 V 54.674805 h 6.00098 z m 1.76758,-11.328125 h 0.70801 V 66.00293 h -0.70801 z m 1.75781,0 h 0.70801 V 66.00293 h -0.70801 z m 26.47949,11.328125 h -6.00097 V 54.674805 h 6.00097 z m 6.00098,0 h -6.00098 V 54.674805 h 6.00098 z m 1.76758,-11.328125 h 0.70801 V 66.00293 h -0.70801 z m 1.75781,0 h 0.70801 V 66.00293 h -0.70801 z m 8.47656,11.328125 h -6.00097 V 54.674805 h 6.00097 z m 6.00098,0 h -6.00098 V 54.674805 h 6.00098 z m 1.76758,-11.328125 h 0.70801 V 66.00293 h -0.70801 z m 1.75781,0 h 0.70801 V 66.00293 h -0.70801 z m 4.24316,0 h 0.70801 v 5.786132 h 3.57422 v 0.708008 h -4.28223 z m 1.75782,0 h 0.708 v 4.02832 h 1.81641 v 0.708008 h -2.52441 z m 8.47656,11.328125 h -6.00098 V 54.674805 h 6.00098 z m 6.00098,0 h -6.00098 V 54.674805 h 6.00098 z m 4.23339,-7.299805 v 7.299805 h -0.708 v -6.591797 h -3.57422 v -0.708008 z m -1.75781,7.299805 h -0.70801 v -4.833985 h -1.8164 v -0.708008 h 2.52441 z m 9.52637,0 h -6.00098 V 54.674805 h 6.00098 z m 6.00098,0 h -6.00098 V 54.674805 h 6.00098 z m 1.76757,-11.328125 h 0.70801 V 66.00293 h -0.70801 z m 1.75782,0 h 0.708 V 66.00293 h -0.708 z m 8.47656,11.328125 h -6.00098 V 54.674805 h 6.00098 z m 6.00098,0 h -6.00098 V 54.674805 h 6.00098 z m 1.76757,-7.299805 h 4.28223 v 0.708008 h -3.57422 v 6.591797 h -0.70801 z m 1.75782,1.757812 h 2.52441 v 0.708008 h -1.81641 v 4.833985 h -0.708 z m 2.42675,-1.049804 v -0.708008 h 6.09864 v 0.708008 z m 0,1.757812 v -0.708008 h 6.09864 v 0.708008 z m 6.00098,-1.757812 v -0.708008 h 6.09863 v 0.708008 z m 0,1.757812 v -0.708008 h 6.09863 v 0.708008 z m 12.05078,4.833985 H 462.0752 V 54.674805 h 6.00097 z m 6.00098,0 h -6.00098 V 54.674805 h 6.00098 z m 1.76758,-11.328125 h 0.708 V 66.00293 h -0.708 z m 1.75781,0 h 0.70801 V 66.00293 h -0.70801 z m 8.47656,11.328125 h -6.00098 V 54.674805 h 6.00098 z m 6.00098,0 H 486.0791 V 54.674805 h 6.00098 z m 1.76758,-11.328125 h 0.708 V 66.00293 h -0.708 z m 1.75781,0 h 0.70801 V 66.00293 h -0.70801 z"/>
    <path d="path9"/>
    <path d="M 18.00293,78.50293 H 12.001953 V 67.174805 h 6.000977 z m 6.000976,0 H 18.00293 V 67.174805 h 6.000976 z m 6.000977,0 H 24.003906 V 67.174805 h 6.000977 z m 6.000976,0 H 30.004883 V 67.174805 h 6.000976 z m 6.000977,0 H 36.005859 V 67.174805 h 6.000977 z m 6.000976,0 H 42.006836 V 67.174805 h 6.000976 z m 1.767579,-7.299805 h 4.282226 v 0.708008 h -3.574219 v 6.591797 h -0.708007 z m 1.757812,1.757812 h 2.524414 v 0.708008 h -1.816406 v 4.833985 h -0.708008 z m 6.708984,0.708008 h -4.282226 v -0.708008 h 3.574219 v -5.786132 h 0.708007 z m -2.46582,-6.49414 h 0.708008 v 4.736328 h -2.524414 v -0.708008 h 1.816406 z M 66.010742,78.50293 H 60.009766 V 67.174805 h 6.000976 z m 6.000977,0 H 66.010742 V 67.174805 h 6.000977 z m 1.767578,-11.328125 h 0.708008 V 78.50293 h -0.708008 z m 1.757812,0 h 0.708008 V 78.50293 H 75.537109 Z M 84.013672,78.50293 H 78.012695 V 67.174805 h 6.000977 z m 6.000976,0 H 84.013672 V 67.174805 h 6.000976 z m 1.767579,-11.328125 h 0.708007 V 78.50293 h -0.708007 z m 1.757812,0 h 0.708008 V 78.50293 h -0.708008 z m 10.244141,0 h 0.70801 v 5.786132 h 3.57422 v 0.708008 h -4.28223 z m 1.75781,0 H 106.25 v 4.02832 h 1.81641 v 0.708008 h -2.52442 z m 2.42676,4.736328 v -0.708008 h 6.09863 v 0.708008 z m 0,1.757812 v -0.708008 h 6.09863 v 0.708008 z m 10.2832,0 h -4.28222 v -0.708008 h 3.57422 v -5.786132 h 0.708 z m -2.46582,-6.49414 h 0.70801 v 4.736328 h -2.52441 v -0.708008 h 1.8164 z m 16.23535,11.328125 h -6.00097 V 67.174805 h 6.00097 z m 6.00098,0 h -6.00098 V 67.174805 h 6.00098 z m 1.76758,-11.328125 h 0.70801 V 78.50293 h -0.70801 z m 1.75781,0 h 0.70801 V 78.50293 h -0.70801 z m 8.47656,11.328125 h -6.00097 V 67.174805 h 6.00097 z m 6.00098,0 h -6.00098 V 67.174805 h 6.00098 z m 6.00098,0 h -6.00098 V 67.174805 h 6.00098 z m 6.00097,0 h -6.00097 V 67.174805 h 6.00097 z m 6.00098,0 h -6.00098 V 67.174805 h 6.00098 z m 6.00098,0 h -6.00098 V 67.174805 h 6.00098 z m 6.00097,0 H 180.0293 V 67.174805 h 6.00097 z m 4.2334,-7.299805 v 7.299805 h -0.70801 v -6.591797 h -3.57421 v -0.708008 z m -1.75781,7.299805 h -0.70801 v -4.833985 h -1.8164 v -0.708008 h 2.52441 z m 9.52637,0 h -6.00098 V 67.174805 h 6.00098 z m 6.00097,0 h -6.00097 V 67.174805 h 6.00097 z m 1.76758,-11.328125 h 0.70801 V 78.50293 h -0.70801 z m 1.75781,0 h 0.70801 V 78.50293 h -0.70801 z m 10.24414,0 h 0.70801 v 5.786132 h 3.57422 v 0.708008 h -4.28223 z m 1.75782,0 h 0.708 v 4.02832 h 1.81641 v 0.708008 h -2.52441 z m 8.47656,11.328125 h -6.00098 V 67.174805 h 6.00098 z m 6.00098,0 h -6.00098 V 67.174805 h 6.00098 z m 6.00097,0 h -6.00097 V 67.174805 h 6.00097 z m 6.00098,0 h -6.00098 V 67.174805 h 6.00098 z m 1.76758,-11.328125 h 0.708 V 78.50293 h -0.708 z m 1.75781,0 h 0.70801 V 78.50293 h -0.70801 z m 8.47656,11.328125 h -6.00097 V 67.174805 h 6.00097 z m 6.00098,0 h -6.00098 V 67.174805 h 6.00098 z m 6.00098,0 h -6.00098 V 67.174805 h 6.00098 z m 6.00097,0 h -6.00097 V 67.174805 h 6.00097 z m 6.00098,0 h -6.00098 V 67.174805 h 6.00098 z m 6.00097,0 H 282.0459 V 67.174805 h 6.00097 z m 6.00098,0 h -6.00098 V 67.174805 h 6.00098 z m 1.76758,-11.328125 h 0.70801 V 78.50293 h -0.70801 z m 1.75781,0 h 0.70801 V 78.50293 h -0.70801 z m 8.47656,11.328125 h -6.00097 V 67.174805 h 6.00097 z m 6.00098,0 H 306.0498 V 67.174805 h 6.00098 z m 1.76758,-11.328125 h 0.70801 V 78.50293 h -0.70801 z m 1.75781,0 h 0.70801 V 78.50293 h -0.70801 z m 4.24317,0 h 0.708 v 5.786132 h 3.57422 v 0.708008 h -4.28222 z m 1.75781,0 h 0.70801 v 4.02832 h 1.8164 v 0.708008 h -2.52441 z m 8.47656,11.328125 h -6.00098 V 67.174805 h 6.00098 z m 6.00098,0 h -6.00098 V 67.174805 h 6.00098 z m 6.00097,0 h -6.00097 V 67.174805 h 6.00097 z m 6.00098,0 h -6.00098 V 67.174805 h 6.00098 z m 6.00098,0 h -6.00098 V 67.174805 h 6.00098 z m 6.00097,0 h -6.00097 V 67.174805 h 6.00097 z m 1.76758,-7.299805 h 4.28223 v 0.708008 h -3.57422 v 6.591797 h -0.70801 z m 1.75781,1.757812 h 2.52442 v 0.708008 h -1.81641 v 4.833985 h -0.70801 z m 6.70899,0.708008 h -4.28223 v -0.708008 h 3.57422 v -5.786132 h 0.70801 z m -2.46582,-6.49414 h 0.70801 v 4.736328 h -2.52442 v -0.708008 h 1.81641 z m 10.23437,11.328125 h -6.00097 V 67.174805 h 6.00097 z m 6.00098,0 h -6.00098 V 67.174805 h 6.00098 z m 1.76758,-11.328125 h 0.70801 V 78.50293 h -0.70801 z m 1.75781,0 h 0.70801 V 78.50293 h -0.70801 z m 10.24414,0 h 0.70801 v 5.786132 h 3.57422 v 0.708008 h -4.28223 z m 1.75781,0 h 0.70801 v 4.02832 h 1.81641 v 0.708008 h -2.52442 z m 8.47657,11.328125 h -6.00098 V 67.174805 h 6.00098 z m 6.00097,0 h -6.00097 V 67.174805 h 6.00097 z m 6.00098,0 h -6.00098 V 67.174805 h 6.00098 z m 6.00098,0 h -6.00098 V 67.174805 h 6.00098 z m 1.76757,-11.328125 h 0.70801 V 78.50293 h -0.70801 z m 1.75782,0 h 0.708 V 78.50293 h -0.708 z m 8.47656,11.328125 h -6.00098 V 67.174805 h 6.00098 z m 6.00098,0 h -6.00098 V 67.174805 h 6.00098 z m 1.76757,-11.328125 h 0.70801 V 78.50293 h -0.70801 z m 1.75782,0 h 0.708 V 78.50293 h -0.708 z M 468.07617,78.50293 H 462.0752 V 67.174805 h 6.00097 z m 6.00098,0 h -6.00098 V 67.174805 h 6.00098 z m 1.76758,-11.328125 h 0.708 V 78.50293 h -0.708 z m 1.75781,0 h 0.70801 V 78.50293 h -0.70801 z m 8.47656,11.328125 h -6.00098 V 67.174805 h 6.00098 z m 6.00098,0 H 486.0791 V 67.174805 h 6.00098 z m 6.00097,0 h -6.00097 V 67.174805 h 6.00097 z m 6.00098,0 h -6.00098 V 67.174805 h 6.00098 z m 6.00098,0 h -6.00098 V 67.174805 h 6.00098 z m 6.00097,0 h -6.00097 V 67.174805 h 6.00097 z m 6.00098,0 h -6.00098 V 67.174805 h 6.00098 z m 4.2334,-7.299805 v 7.299805 h -0.70801 v -6.591797 h -3.57422 v -0.708008 z m -1.75781,7.299805 h -0.70801 v -4.833985 h -1.81641 v -0.708008 h 2.52442 z"/>
    <path d="path10"/>
    <path d="m 13.769531,79.674805 h 0.708008 v 5.786132 h 3.574219 v 0.708008 h -4.282227 z m 1.757813,0 h 0.708008 v 4.02832 h 1.816406 v 0.708008 h -2.524414 z m 2.426758,4.736328 v -0.708008 h 6.098632 v 0.708008 z m 0,1.757812 v -0.708008 h 6.098632 v 0.708008 z m 6.000976,-1.757812 v -0.708008 h 6.098633 v 0.708008 z m 0,1.757812 v -0.708008 h 6.098633 v 0.708008 z m 6.000977,-1.757812 v -0.708008 h 6.098632 v 0.708008 z m 0,1.757812 v -0.708008 h 6.098632 v 0.708008 z m 6.000976,-1.757812 v -0.708008 h 6.098633 v 0.708008 z m 0,1.757812 v -0.708008 h 6.098633 v 0.708008 z m 6.000977,-1.757812 v -0.708008 h 6.098633 v 0.708008 z m 0,1.757812 v -0.708008 h 6.098633 v 0.708008 z m 10.283203,0 h -4.282227 v -0.708008 h 3.574219 v -5.786132 h 0.708008 z m -2.46582,-6.49414 h 0.708007 v 4.736328 h -2.524414 v -0.708008 h 1.816407 z m 12.001953,0 h 0.708008 v 5.786132 h 3.574218 v 0.708008 h -4.282226 z m 1.757812,0 h 0.708008 v 4.02832 h 1.816406 v 0.708008 h -2.524414 z m 2.426758,4.736328 v -0.708008 h 6.098633 v 0.708008 z m 0,1.757812 v -0.708008 h 6.098633 v 0.708008 z m 10.283203,0 h -4.282226 v -0.708008 h 3.574218 v -5.786132 h 0.708008 z m -2.46582,-6.49414 h 0.708008 v 4.736328 h -2.524414 v -0.708008 h 1.816406 z m 6.000976,0 h 0.708008 v 5.786132 H 84.0625 v 0.708008 h -4.282227 z m 1.757813,0 h 0.708008 v 4.02832 H 84.0625 v 0.708008 h -2.524414 z m 2.426758,4.736328 v -0.708008 h 6.098633 v 0.708008 z m 0,1.757812 v -0.708008 h 6.098633 v 0.708008 z m 10.283203,0 H 89.96582 v -0.708008 h 3.574219 v -5.786132 h 0.708008 z m -2.46582,-6.49414 h 0.708007 v 4.736328 H 89.96582 v -0.708008 h 1.816407 z m 36.005863,0 h 0.708 v 5.786132 h 3.57422 v 0.708008 h -4.28222 z m 1.75781,0 h 0.70801 v 4.02832 h 1.8164 v 0.708008 h -2.52441 z m 2.42676,4.736328 v -0.708008 h 6.09863 v 0.708008 z m 0,1.757812 v -0.708008 h 6.09863 v 0.708008 z m 10.2832,0 h -4.28223 v -0.708008 h 3.57422 v -5.786132 h 0.70801 z m -2.46582,-6.49414 h 0.70801 v 4.736328 h -2.52442 v -0.708008 h 1.81641 z m 6.00098,0 h 0.708 v 5.786132 h 3.57422 v 0.708008 h -4.28222 z m 1.75781,0 h 0.70801 v 4.02832 h 1.8164 v 0.708008 h -2.52441 z m 2.42676,4.736328 v -0.708008 h 6.09863 v 0.708008 z m 0,1.757812 v -0.708008 h 6.09863 v 0.708008 z m 6.00097,-1.757812 v -0.708008 h 6.09864 v 0.708008 z m 0,1.757812 v -0.708008 h 6.09864 v 0.708008 z m 6.00098,-1.757812 v -0.708008 h 6.09863 v 0.708008 z m 0,1.757812 v -0.708008 h 6.09863 v 0.708008 z m 6.00098,-1.757812 v -0.708008 h 6.09863 v 0.708008 z m 0,1.757812 v -0.708008 h 6.09863 v 0.708008 z m 6.00097,-1.757812 v -0.708008 h 6.09863 v 0.708008 z m 0,1.757812 v -0.708008 h 6.09863 v 0.708008 z m 6.00098,-1.757812 v -0.708008 h 6.09863 v 0.708008 z m 0,1.757812 v -0.708008 h 6.09863 v 0.708008 z m 10.2832,0 h -4.28222 v -0.708008 h 3.57421 v -5.786132 h 0.70801 z m -2.46582,-6.49414 h 0.70801 v 4.736328 h -2.52441 v -0.708008 h 1.8164 z m 6.00098,0 h 0.70801 v 5.786132 h 3.57421 v 0.708008 h -4.28222 z m 1.75781,0 h 0.70801 v 4.02832 h 1.8164 v 0.708008 h -2.52441 z m 2.42676,4.736328 v -0.708008 h 6.09863 v 0.708008 z m 0,1.757812 v -0.708008 h 6.09863 v 0.708008 z m 10.2832,0 h -4.28223 v -0.708008 h 3.57422 v -5.786132 h 0.70801 z m -2.46582,-6.49414 h 0.70801 v 4.736328 h -2.52442 v -0.708008 h 1.81641 z m 18.00293,0 h 0.70801 v 5.786132 h 3.57422 v 0.708008 h -4.28223 z m 1.75781,0 h 0.70801 v 4.02832 h 1.81641 v 0.708008 h -2.52442 z m 2.42676,4.736328 v -0.708008 h 6.09863 v 0.708008 z m 0,1.757812 v -0.708008 h 6.09863 v 0.708008 z m 6.00098,-1.757812 v -0.708008 h 6.09863 v 0.708008 z m 0,1.757812 v -0.708008 h 6.09863 v 0.708008 z m 6.00097,-1.757812 v -0.708008 h 6.09864 v 0.708008 z m 0,1.757812 v -0.708008 h 6.09864 v 0.708008 z m 10.28321,0 h -4.28223 v -0.708008 h 3.57422 v -5.786132 h 0.70801 z m -2.46582,-6.49414 h 0.708 v 4.736328 h -2.52441 v -0.708008 h 1.81641 z m 6.00097,0 h 0.70801 v 5.786132 h 3.57422 v 0.708008 h -4.28223 z m 1.75782,0 h 0.708 v 4.02832 h 1.81641 v 0.708008 h -2.52441 z m 2.42675,4.736328 v -0.708008 h 6.09864 v 0.708008 z m 0,1.757812 v -0.708008 h 6.09864 v 0.708008 z m 6.00098,-1.757812 v -0.708008 h 6.09863 v 0.708008 z m 0,1.757812 v -0.708008 h 6.09863 v 0.708008 z m 6.00098,-1.757812 v -0.708008 h 6.09863 v 0.708008 z m 0,1.757812 v -0.708008 h 6.09863 v 0.708008 z m 6.00097,-1.757812 v -0.708008 h 6.09864 v 0.708008 z m 0,1.757812 v -0.708008 h 6.09864 v 0.708008 z m 6.00098,-1.757812 v -0.708008 h 6.09863 v 0.708008 z m 0,1.757812 v -0.708008 h 6.09863 v 0.708008 z m 6.00098,-1.757812 v -0.708008 h 6.09863 v 0.708008 z m 0,1.757812 v -0.708008 h 6.09863 v 0.708008 z m 10.2832,0 h -4.28223 v -0.708008 h 3.57422 v -5.786132 h 0.70801 z m -2.46582,-6.49414 h 0.70801 v 4.736328 h -2.52442 v -0.708008 h 1.81641 z m 6.00098,0 h 0.708 v 5.786132 h 3.57422 v 0.708008 h -4.28222 z m 1.75781,0 h 0.70801 v 4.02832 h 1.8164 v 0.708008 h -2.52441 z m 2.42676,4.736328 v -0.708008 h 6.09863 v 0.708008 z m 0,1.757812 v -0.708008 h 6.09863 v 0.708008 z m 10.2832,0 h -4.28223 v -0.708008 h 3.57422 v -5.786132 h 0.70801 z m -2.46582,-6.49414 h 0.70801 v 4.736328 h -2.52442 v -0.708008 h 1.81641 z m 12.00195,0 h 0.70801 v 5.786132 h 3.57422 v 0.708008 h -4.28223 z m 1.75781,0 h 0.70801 v 4.02832 h 1.81641 v 0.708008 h -2.52442 z m 2.42676,4.736328 v -0.708008 h 6.09864 v 0.708008 z m 0,1.757812 v -0.708008 h 6.09864 v 0.708008 z m 6.00098,-1.757812 v -0.708008 h 6.09863 v 0.708008 z m 0,1.757812 v -0.708008 h 6.09863 v 0.708008 z m 6.00098,-1.757812 v -0.708008 h 6.09863 v 0.708008 z m 0,1.757812 v -0.708008 h 6.09863 v 0.708008 z m 6.00097,-1.757812 v -0.708008 h 6.09864 v 0.708008 z m 0,1.757812 v -0.708008 h 6.09864 v 0.708008 z m 6.00098,-1.757812 v -0.708008 h 6.09863 v 0.708008 z m 0,1.757812 v -0.708008 h 6.09863 v 0.708008 z m 10.2832,0 h -4.28222 v -0.708008 h 3.57421 v -5.786132 h 0.70801 z m -2.46582,-6.49414 h 0.70801 v 4.736328 h -2.52441 v -0.708008 h 1.8164 z m 12.00195,0 h 0.70801 v 5.786132 h 3.57422 v 0.708008 h -4.28223 z m 1.75782,0 h 0.70801 v 4.02832 h 1.8164 v 0.708008 h -2.52441 z m 2.42676,4.736328 v -0.708008 h 6.09863 v 0.708008 z m 0,1.757812 v -0.708008 h 6.09863 v 0.708008 z m 10.2832,0 h -4.28223 v -0.708008 h 3.57422 v -5.786132 h 0.70801 z m -2.46582,-6.49414 h 0.70801 v 4.736328 h -2.52442 v -0.708008 h 1.81641 z m 18.00293,0 h 0.70801 v 5.786132 h 3.57421 v 0.708008 h -4.28222 z m 1.75781,0 h 0.70801 v 4.02832 h 1.8164 v 0.708008 h -2.52441 z m 2.42676,4.736328 v -0.708008 h 6.09863 v 0.708008 z m 0,1.757812 v -0.708008 h 6.09863 v 0.708008 z m 6.00097,-1.757812 v -0.708008 h 6.09864 v 0.708008 z m 0,1.757812 v -0.708008 h 6.09864 v 0.708008 z m 6.00098,-1.757812 v -0.708008 h 6.09863 v 0.708008 z m 0,1.757812 v -0.708008 h 6.09863 v 0.708008 z m 10.2832,0 h -4.28222 v -0.708008 h 3.57422 v -5.786132 h 0.708 z m -2.46582,-6.49414 h 0.70801 v 4.736328 h -2.52441 v -0.708008 h 1.8164 z m 6.00098,0 h 0.70801 v 5.786132 h 3.57422 v 0.708008 h -4.28223 z m 1.75781,0 h 0.70801 v 4.02832 h 1.81641 v 0.708008 h -2.52442 z m 2.42676,4.736328 v -0.708008 h 6.09863 v 0.708008 z m 0,1.757812 v -0.708008 h 6.09863 v 0.708008 z m 10.2832,0 h -4.28222 v -0.708008 h 3.57422 v -5.786132 h 0.708 z m -2.46582,-6.49414 h 0.70801 v 4.736328 h -2.52441 v -0.708008 h 1.8164 z m 18.00293,0 h 0.70801 v 5.786132 h 3.57422 v 0.708008 h -4.28223 z m 1.75782,0 h 0.708 v 4.02832 h 1.81641 v 0.708008 h -2.52441 z m 2.42675,4.736328 v -0.708008 h 6.09864 v 0.708008 z m 0,1.757812 v -0.708008 h 6.09864 v 0.708008 z m 10.28321,0 h -4.28223 v -0.708008 h 3.57422 v -5.786132 h 0.70801 z m -2.46582,-6.49414 h 0.708 v 4.736328 h -2.52441 v -0.708008 h 1.81641 z m 6.00097,0 h 0.70801 v 5.786132 h 3.57422 v 0.708008 h -4.28223 z m 1.75782,0 h 0.708 v 4.02832 h 1.81641 v 0.708008 h -2.52441 z m 2.42675,4.736328 v -0.708008 h 6.09864 v 0.708008 z m 0,1.757812 v -0.708008 h 6.09864 v 0.708008 z m 6.00098,-1.757812 v -0.708008 h 6.09863 v 0.708008 z m 0,1.757812 v -0.708008 h 6.09863 v 0.708008 z m 6.00098,-1.757812 v -0.708008 h 6.09863 v 0.708008 z m 0,1.757812 v -0.708008 h 6.09863 v 0.708008 z m 6.00097,-1.757812 v -0.708008 h 6.09864 v 0.708008 z m 0,1.757812 v -0.708008 h 6.09864 v 0.708008 z m 6.00098,-1.757812 v -0.708008 h 6.09863 v 0.708008 z m 0,1.757812 v -0.708008 h 6.09863 v 0.708008 z m 6.00098,-1.757812 v -0.708008 h 6.09863 v 0.708008 z m 0,1.757812 v -0.708008 h 6.09863 v 0.708008 z m 10.2832,0 h -4.28223 v -0.708008 h 3.57422 v -5.786132 h 0.70801 z m -2.46582,-6.49414 h 0.70801 v 4.736328 h -2.52442 v -0.708008 h 1.81641 z"/>
    <path d="path11"/>
  </g>
</svg>
