<?xml version="1.0" encoding="UTF-8" standalone="no"?>
<!DOCTYPE svg PUBLIC "-//W3C//DTD SVG 1.1//EN"
 "http://www.w3.org/Graphics/SVG/1.1/DTD/svg11.dtd">
<!-- Generated by graphviz version 12.2.1 (0)
 -->
<!-- Title: modules Pages: 1 -->
<svg width="1007pt" height="192pt"
 viewBox="0.00 0.00 1006.65 192.00" xmlns="http://www.w3.org/2000/svg" xmlns:xlink="http://www.w3.org/1999/xlink">
<g id="graph0" class="graph" transform="scale(1 1) rotate(0) translate(4 188)">
<title>modules</title>
<g id="clust1" class="cluster">
<title>cluster_mapping</title>
<polygon fill="#9575cd" fill-opacity="0.062745" stroke="#9575cd" stroke-dasharray="5,2" points="303.8,-27 303.8,-161 433.2,-161 433.2,-27 303.8,-27"/>
<text text-anchor="middle" x="396.33" y="-143.7" font-family="fixed" font-size="14.00" fill="#b5e4f4">mapping</text>
</g>
<g id="clust2" class="cluster">
<title>cluster_navigation</title>
<polygon fill="#aa96da" fill-opacity="0.062745" stroke="#aa96da" stroke-dasharray="5,2" points="647.6,-27 647.6,-161 829.5,-161 829.5,-27 647.6,-27"/>
<text text-anchor="middle" x="787" y="-143.7" font-family="fixed" font-size="14.00" fill="#b5e4f4">navigation</text>
</g>
<g id="clust3" class="cluster">
<title>cluster_robot</title>
<polygon fill="#64b5f6" fill-opacity="0.062745" stroke="#64b5f6" stroke-dasharray="5,2" points="20.75,-8 20.75,-88 141.15,-88 141.15,-8 20.75,-8"/>
<text text-anchor="middle" x="115.53" y="-70.7" font-family="fixed" font-size="14.00" fill="#b5e4f4">robot</text>
</g>
<g id="clust4" class="cluster">
<title>cluster_visualization</title>
<polygon fill="#7986cb" fill-opacity="0.062745" stroke="#7986cb" stroke-dasharray="5,2" points="8,-96 8,-176 153.9,-176 153.9,-96 8,-96"/>
<text text-anchor="middle" x="105.03" y="-158.7" font-family="fixed" font-size="14.00" fill="#b5e4f4">visualization</text>
</g>
<!-- CostMapper -->
<g id="node1" class="node">
<title>CostMapper</title>
<polygon fill="#0b0f0f" stroke="#5c9ff0" points="410.95,-71 326.05,-71 326.05,-35 410.95,-35 410.95,-71"/>
<text text-anchor="middle" x="368.5" y="-50.23" font-family="fixed" font-size="12.00" fill="#b5e4f4">CostMapper</text>
</g>
<!-- chan_global_costmap_OccupancyGrid -->
<g id="node8" class="node">
<title>chan_global_costmap_OccupancyGrid</title>
<polygon fill="#ff8a65" fill-opacity="0.207843" stroke="#ff8a65" points="616.02,-63.73 461.2,-63.73 461.2,-42.27 619.6,-42.27 619.6,-60.15 616.02,-63.73"/>
<polyline fill="none" stroke="#ff8a65" points="616.02,-63.73 616.02,-60.15"/>
<polyline fill="none" stroke="#ff8a65" points="619.6,-60.15 616.02,-60.15"/>
<text text-anchor="middle" x="540.4" y="-50.62" font-family="fixed" font-size="10.00" fill="#b5e4f4">global_costmap:OccupancyGrid</text>
</g>
<!-- CostMapper&#45;&gt;chan_global_costmap_OccupancyGrid -->
<g id="edge3" class="edge">
<title>CostMapper&#45;&gt;chan_global_costmap_OccupancyGrid</title>
<path fill="none" stroke="#ff8a65" d="M411.06,-53C426.09,-53 443.6,-53 460.76,-53"/>
</g>
<!-- VoxelGridMapper -->
<g id="node2" class="node">
<title>VoxelGridMapper</title>
<polygon fill="#0b0f0f" stroke="#5c9ff0" points="425.2,-125 311.8,-125 311.8,-89 425.2,-89 425.2,-125"/>
<text text-anchor="middle" x="368.5" y="-104.22" font-family="fixed" font-size="12.00" fill="#b5e4f4">VoxelGridMapper</text>
</g>
<!-- chan_global_map_PointCloud2 -->
<g id="node9" class="node">
<title>chan_global_map_PointCloud2</title>
<polygon fill="#a1887f" fill-opacity="0.207843" stroke="#a1887f" points="599.9,-109.72 477.32,-109.72 477.32,-88.28 603.48,-88.28 603.48,-106.15 599.9,-109.72"/>
<polyline fill="none" stroke="#a1887f" points="599.9,-109.72 599.9,-106.15"/>
<polyline fill="none" stroke="#a1887f" points="603.48,-106.15 599.9,-106.15"/>
<text text-anchor="middle" x="540.4" y="-96.62" font-family="fixed" font-size="10.00" fill="#b5e4f4">global_map:PointCloud2</text>
</g>
<!-- VoxelGridMapper&#45;&gt;chan_global_map_PointCloud2 -->
<g id="edge6" class="edge">
<title>VoxelGridMapper&#45;&gt;chan_global_map_PointCloud2</title>
<path fill="none" stroke="#a1887f" d="M425.6,-104.36C442.03,-103.58 460.1,-102.73 476.9,-101.94"/>
</g>
<!-- ReplanningAStarPlanner -->
<g id="node3" class="node">
<title>ReplanningAStarPlanner</title>
<polygon fill="#0b0f0f" stroke="#5c9ff0" points="815.5,-71 661.6,-71 661.6,-35 815.5,-35 815.5,-71"/>
<text text-anchor="middle" x="738.55" y="-50.23" font-family="fixed" font-size="12.00" fill="#b5e4f4">ReplanningAStarPlanner</text>
</g>
<!-- chan_cmd_vel_Twist -->
<g id="node7" class="node">
<title>chan_cmd_vel_Twist</title>
<polygon fill="#4db6ac" fill-opacity="0.207843" stroke="#4db6ac" points="963.57,-25.73 889,-25.73 889,-4.28 967.15,-4.28 967.15,-22.15 963.57,-25.73"/>
<polyline fill="none" stroke="#4db6ac" points="963.57,-25.73 963.57,-22.15"/>
<polyline fill="none" stroke="#4db6ac" points="967.15,-22.15 963.57,-22.15"/>
<text text-anchor="middle" x="928.07" y="-12.62" font-family="fixed" font-size="10.00" fill="#b5e4f4">cmd_vel:Twist</text>
</g>
<!-- ReplanningAStarPlanner&#45;&gt;chan_cmd_vel_Twist -->
<g id="edge1" class="edge">
<title>ReplanningAStarPlanner&#45;&gt;chan_cmd_vel_Twist</title>
<path fill="none" stroke="#4db6ac" d="M815.82,-37.54C840.87,-32.47 867.64,-27.04 888.65,-22.79"/>
</g>
<!-- chan_goal_reached_Bool -->
<g id="node10" class="node">
<title>chan_goal_reached_Bool</title>
<polygon fill="#dce775" fill-opacity="0.207843" stroke="#dce775" points="974.45,-67.72 878.12,-67.72 878.12,-46.27 978.02,-46.27 978.02,-64.15 974.45,-67.72"/>
<polyline fill="none" stroke="#dce775" points="974.45,-67.72 974.45,-64.15"/>
<polyline fill="none" stroke="#dce775" points="978.02,-64.15 974.45,-64.15"/>
<text text-anchor="middle" x="928.07" y="-54.62" font-family="fixed" font-size="10.00" fill="#b5e4f4">goal_reached:Bool</text>
</g>
<!-- ReplanningAStarPlanner&#45;&gt;chan_goal_reached_Bool -->
<g id="edge8" class="edge">
<title>ReplanningAStarPlanner&#45;&gt;chan_goal_reached_Bool</title>
<path fill="none" stroke="#dce775" d="M815.82,-54.63C836.71,-55.07 858.8,-55.54 877.74,-55.95"/>
</g>
<!-- WavefrontFrontierExplorer -->
<g id="node4" class="node">
<title>WavefrontFrontierExplorer</title>
<polygon fill="#0b0f0f" stroke="#5c9ff0" points="821.5,-125 655.6,-125 655.6,-89 821.5,-89 821.5,-125"/>
<text text-anchor="middle" x="738.55" y="-104.22" font-family="fixed" font-size="12.00" fill="#b5e4f4">WavefrontFrontierExplorer</text>
</g>
<!-- chan_goal_request_PoseStamped -->
<g id="node11" class="node">
<title>chan_goal_request_PoseStamped</title>
<polygon fill="#fff59d" fill-opacity="0.207843" stroke="#fff59d" points="995.07,-113.72 857.5,-113.72 857.5,-92.28 998.65,-92.28 998.65,-110.15 995.07,-113.72"/>
<polyline fill="none" stroke="#fff59d" points="995.07,-113.72 995.07,-110.15"/>
<polyline fill="none" stroke="#fff59d" points="998.65,-110.15 995.07,-110.15"/>
<text text-anchor="middle" x="928.07" y="-100.62" font-family="fixed" font-size="10.00" fill="#b5e4f4">goal_request:PoseStamped</text>
</g>
<!-- WavefrontFrontierExplorer&#45;&gt;chan_goal_request_PoseStamped -->
<g id="edge10" class="edge">
<title>WavefrontFrontierExplorer&#45;&gt;chan_goal_request_PoseStamped</title>
<path fill="none" stroke="#fff59d" d="M821.8,-105.25C833.61,-104.99 845.67,-104.74 857.21,-104.49"/>
</g>
<!-- GO2Connection -->
<g id="node5" class="node">
<title>GO2Connection</title>
<polygon fill="#0b0f0f" stroke="#5c9ff0" points="133.15,-52 28.75,-52 28.75,-16 133.15,-16 133.15,-52"/>
<text text-anchor="middle" x="80.95" y="-31.23" font-family="fixed" font-size="12.00" fill="#b5e4f4">GO2Connection</text>
</g>
<!-- chan_lidar_PointCloud2 -->
<g id="node12" class="node">
<title>chan_lidar_PointCloud2</title>
<polygon fill="#f06292" fill-opacity="0.207843" stroke="#f06292" points="272.23,-59.73 181.9,-59.73 181.9,-38.27 275.8,-38.27 275.8,-56.15 272.23,-59.73"/>
<polyline fill="none" stroke="#f06292" points="272.23,-59.73 272.23,-56.15"/>
<polyline fill="none" stroke="#f06292" points="275.8,-56.15 272.23,-56.15"/>
<text text-anchor="middle" x="228.85" y="-46.62" font-family="fixed" font-size="10.00" fill="#b5e4f4">lidar:PointCloud2</text>
</g>
<!-- GO2Connection&#45;&gt;chan_lidar_PointCloud2 -->
<g id="edge12" class="edge">
<title>GO2Connection&#45;&gt;chan_lidar_PointCloud2</title>
<path fill="none" stroke="#f06292" d="M133.39,-39.29C149.14,-40.91 166.36,-42.68 181.74,-44.26"/>
</g>
<!-- RerunBridgeModule -->
<g id="node6" class="node">
<title>RerunBridgeModule</title>
<polygon fill="#0b0f0f" stroke="#5c9ff0" points="145.9,-140 16,-140 16,-104 145.9,-104 145.9,-140"/>
<text text-anchor="middle" x="80.95" y="-119.22" font-family="fixed" font-size="12.00" fill="#b5e4f4">RerunBridgeModule</text>
</g>
<!-- chan_cmd_vel_Twist&#45;&gt;GO2Connection -->
<g id="edge2" class="edge">
<title>chan_cmd_vel_Twist&#45;&gt;GO2Connection</title>
<path fill="none" stroke="#4db6ac" d="M888.76,-13.68C819.46,-11.41 668.65,-7 541.4,-7 367.5,-7 367.5,-7 367.5,-7 290.47,-7 202.27,-16.86 144.53,-24.66"/>
<polygon fill="#4db6ac" stroke="#4db6ac" points="144.33,-21.16 134.9,-25.98 145.28,-28.09 144.33,-21.16"/>
</g>
<!-- chan_global_costmap_OccupancyGrid&#45;&gt;ReplanningAStarPlanner -->
<g id="edge4" class="edge">
<title>chan_global_costmap_OccupancyGrid&#45;&gt;ReplanningAStarPlanner</title>
<path fill="none" stroke="#ff8a65" d="M620.05,-53C629.78,-53 639.78,-53 649.63,-53"/>
<polygon fill="#ff8a65" stroke="#ff8a65" points="649.6,-56.5 659.6,-53 649.6,-49.5 649.6,-56.5"/>
</g>
<!-- chan_global_costmap_OccupancyGrid&#45;&gt;WavefrontFrontierExplorer -->
<g id="edge5" class="edge">
<title>chan_global_costmap_OccupancyGrid&#45;&gt;WavefrontFrontierExplorer</title>
<path fill="none" stroke="#ff8a65" d="M582.04,-64.19C604.53,-70.38 633.24,-78.28 659.85,-85.61"/>
<polygon fill="#ff8a65" stroke="#ff8a65" points="658.68,-88.92 669.25,-88.2 660.53,-82.17 658.68,-88.92"/>
</g>
<!-- chan_global_map_PointCloud2&#45;&gt;CostMapper -->
<g id="edge7" class="edge">
<title>chan_global_map_PointCloud2&#45;&gt;CostMapper</title>
<path fill="none" stroke="#a1887f" d="M497.97,-87.78C475.08,-81.59 446.41,-73.82 421.96,-67.2"/>
<polygon fill="#a1887f" stroke="#a1887f" points="423.09,-63.88 412.52,-64.65 421.26,-70.64 423.09,-63.88"/>
</g>
<!-- chan_goal_reached_Bool&#45;&gt;WavefrontFrontierExplorer -->
<g id="edge9" class="edge">
<title>chan_goal_reached_Bool&#45;&gt;WavefrontFrontierExplorer</title>
<path fill="none" stroke="#dce775" d="M885.01,-68.22C865.73,-73.36 842.22,-79.63 819.76,-85.61"/>
<polygon fill="#dce775" stroke="#dce775" points="819.07,-82.18 810.31,-88.13 820.87,-88.94 819.07,-82.18"/>
</g>
<!-- chan_goal_request_PoseStamped&#45;&gt;ReplanningAStarPlanner -->
<g id="edge11" class="edge">
<title>chan_goal_request_PoseStamped&#45;&gt;ReplanningAStarPlanner</title>
<path fill="none" stroke="#fff59d" d="M885.01,-91.78C865.73,-86.64 842.22,-80.37 819.76,-74.39"/>
<polygon fill="#fff59d" stroke="#fff59d" points="820.87,-71.06 810.31,-71.87 819.07,-77.82 820.87,-71.06"/>
</g>
<!-- chan_lidar_PointCloud2&#45;&gt;VoxelGridMapper -->
<g id="edge13" class="edge">
<title>chan_lidar_PointCloud2&#45;&gt;VoxelGridMapper</title>
<path fill="none" stroke="#f06292" d="M256.39,-60.18C272.55,-66.99 293.78,-75.94 313.36,-84.19"/>
<polygon fill="#f06292" stroke="#f06292" points="311.74,-87.3 322.32,-87.96 314.46,-80.85 311.74,-87.3"/>
</g>
</g>
</svg>
