<?xml version="1.0" encoding="UTF-8" standalone="no"?>
<!DOCTYPE svg PUBLIC "-//W3C//DTD SVG 1.1//EN"
 "http://www.w3.org/Graphics/SVG/1.1/DTD/svg11.dtd">
<!-- Generated by graphviz version 12.2.1 (0)
 -->
<!-- Title: modules Pages: 1 -->
<svg width="989pt" height="188pt"
 viewBox="0.00 0.00 989.40 188.00" xmlns="http://www.w3.org/2000/svg" xmlns:xlink="http://www.w3.org/1999/xlink">
<g id="graph0" class="graph" transform="scale(1 1) rotate(0) translate(4 184)">
<title>modules</title>
<g id="clust1" class="cluster">
<title>cluster_mapping</title>
<polygon fill="#9575cd" fill-opacity="0.062745" stroke="#9575cd" stroke-dasharray="5,2" points="286.55,-38 286.55,-172 415.95,-172 415.95,-38 286.55,-38"/>
<text text-anchor="middle" x="379.08" y="-154.7" font-family="fixed" font-size="14.00" fill="#b5e4f4">mapping</text>
</g>
<g id="clust2" class="cluster">
<title>cluster_navigation</title>
<polygon fill="#aa96da" fill-opacity="0.062745" stroke="#aa96da" stroke-dasharray="5,2" points="630.35,-38 630.35,-172 812.25,-172 812.25,-38 630.35,-38"/>
<text text-anchor="middle" x="769.75" y="-154.7" font-family="fixed" font-size="14.00" fill="#b5e4f4">navigation</text>
</g>
<g id="clust3" class="cluster">
<title>cluster_robot</title>
<polygon fill="#64b5f6" fill-opacity="0.062745" stroke="#64b5f6" stroke-dasharray="5,2" points="8,-8 8,-142 128.4,-142 128.4,-8 8,-8"/>
<text text-anchor="middle" x="102.78" y="-124.7" font-family="fixed" font-size="14.00" fill="#b5e4f4">robot</text>
</g>
<!-- CostMapper -->
<g id="node1" class="node">
<title>CostMapper</title>
<polygon fill="#0b0f0f" stroke="#5c9ff0" points="393.7,-82 308.8,-82 308.8,-46 393.7,-46 393.7,-82"/>
<text text-anchor="middle" x="351.25" y="-61.23" font-family="fixed" font-size="12.00" fill="#b5e4f4">CostMapper</text>
</g>
<!-- chan_global_costmap_OccupancyGrid -->
<g id="node8" class="node">
<title>chan_global_costmap_OccupancyGrid</title>
<polygon fill="#ff8a65" fill-opacity="0.207843" stroke="#ff8a65" points="598.77,-74.72 443.95,-74.72 443.95,-53.27 602.35,-53.27 602.35,-71.15 598.77,-74.72"/>
<polyline fill="none" stroke="#ff8a65" points="598.77,-74.72 598.77,-71.15"/>
<polyline fill="none" stroke="#ff8a65" points="602.35,-71.15 598.77,-71.15"/>
<text text-anchor="middle" x="523.15" y="-61.62" font-family="fixed" font-size="10.00" fill="#b5e4f4">global_costmap:OccupancyGrid</text>
</g>
<!-- CostMapper&#45;&gt;chan_global_costmap_OccupancyGrid -->
<g id="edge3" class="edge">
<title>CostMapper&#45;&gt;chan_global_costmap_OccupancyGrid</title>
<path fill="none" stroke="#ff8a65" d="M393.81,-64C408.84,-64 426.35,-64 443.51,-64"/>
</g>
<!-- VoxelGridMapper -->
<g id="node2" class="node">
<title>VoxelGridMapper</title>
<polygon fill="#0b0f0f" stroke="#5c9ff0" points="407.95,-136 294.55,-136 294.55,-100 407.95,-100 407.95,-136"/>
<text text-anchor="middle" x="351.25" y="-115.22" font-family="fixed" font-size="12.00" fill="#b5e4f4">VoxelGridMapper</text>
</g>
<!-- chan_global_map_LidarMessage -->
<g id="node9" class="node">
<title>chan_global_map_LidarMessage</title>
<polygon fill="#81d4fa" fill-opacity="0.207843" stroke="#81d4fa" points="586.77,-120.72 455.95,-120.72 455.95,-99.28 590.35,-99.28 590.35,-117.15 586.77,-120.72"/>
<polyline fill="none" stroke="#81d4fa" points="586.77,-120.72 586.77,-117.15"/>
<polyline fill="none" stroke="#81d4fa" points="590.35,-117.15 586.77,-117.15"/>
<text text-anchor="middle" x="523.15" y="-107.62" font-family="fixed" font-size="10.00" fill="#b5e4f4">global_map:LidarMessage</text>
</g>
<!-- VoxelGridMapper&#45;&gt;chan_global_map_LidarMessage -->
<g id="edge6" class="edge">
<title>VoxelGridMapper&#45;&gt;chan_global_map_LidarMessage</title>
<path fill="none" stroke="#81d4fa" d="M408.35,-115.36C423.43,-114.65 439.89,-113.87 455.48,-113.14"/>
</g>
<!-- ReplanningAStarPlanner -->
<g id="node3" class="node">
<title>ReplanningAStarPlanner</title>
<polygon fill="#0b0f0f" stroke="#5c9ff0" points="798.25,-82 644.35,-82 644.35,-46 798.25,-46 798.25,-82"/>
<text text-anchor="middle" x="721.3" y="-61.23" font-family="fixed" font-size="12.00" fill="#b5e4f4">ReplanningAStarPlanner</text>
</g>
<!-- chan_cmd_vel_Twist -->
<g id="node7" class="node">
<title>chan_cmd_vel_Twist</title>
<polygon fill="#4db6ac" fill-opacity="0.207843" stroke="#4db6ac" points="946.32,-36.73 871.75,-36.73 871.75,-15.28 949.9,-15.28 949.9,-33.15 946.32,-36.73"/>
<polyline fill="none" stroke="#4db6ac" points="946.32,-36.73 946.32,-33.15"/>
<polyline fill="none" stroke="#4db6ac" points="949.9,-33.15 946.32,-33.15"/>
<text text-anchor="middle" x="910.82" y="-23.62" font-family="fixed" font-size="10.00" fill="#b5e4f4">cmd_vel:Twist</text>
</g>
<!-- ReplanningAStarPlanner&#45;&gt;chan_cmd_vel_Twist -->
<g id="edge1" class="edge">
<title>ReplanningAStarPlanner&#45;&gt;chan_cmd_vel_Twist</title>
<path fill="none" stroke="#4db6ac" d="M798.57,-48.54C823.62,-43.47 850.39,-38.04 871.4,-33.79"/>
</g>
<!-- chan_goal_reached_Bool -->
<g id="node10" class="node">
<title>chan_goal_reached_Bool</title>
<polygon fill="#dce775" fill-opacity="0.207843" stroke="#dce775" points="957.2,-78.72 860.87,-78.72 860.87,-57.27 960.77,-57.27 960.77,-75.15 957.2,-78.72"/>
<polyline fill="none" stroke="#dce775" points="957.2,-78.72 957.2,-75.15"/>
<polyline fill="none" stroke="#dce775" points="960.77,-75.15 957.2,-75.15"/>
<text text-anchor="middle" x="910.82" y="-65.62" font-family="fixed" font-size="10.00" fill="#b5e4f4">goal_reached:Bool</text>
</g>
<!-- ReplanningAStarPlanner&#45;&gt;chan_goal_reached_Bool -->
<g id="edge8" class="edge">
<title>ReplanningAStarPlanner&#45;&gt;chan_goal_reached_Bool</title>
<path fill="none" stroke="#dce775" d="M798.57,-65.63C819.46,-66.07 841.55,-66.54 860.49,-66.95"/>
</g>
<!-- WavefrontFrontierExplorer -->
<g id="node4" class="node">
<title>WavefrontFrontierExplorer</title>
<polygon fill="#0b0f0f" stroke="#5c9ff0" points="804.25,-136 638.35,-136 638.35,-100 804.25,-100 804.25,-136"/>
<text text-anchor="middle" x="721.3" y="-115.22" font-family="fixed" font-size="12.00" fill="#b5e4f4">WavefrontFrontierExplorer</text>
</g>
<!-- chan_goal_request_PoseStamped -->
<g id="node11" class="node">
<title>chan_goal_request_PoseStamped</title>
<polygon fill="#fff59d" fill-opacity="0.207843" stroke="#fff59d" points="977.82,-124.72 840.25,-124.72 840.25,-103.28 981.4,-103.28 981.4,-121.15 977.82,-124.72"/>
<polyline fill="none" stroke="#fff59d" points="977.82,-124.72 977.82,-121.15"/>
<polyline fill="none" stroke="#fff59d" points="981.4,-121.15 977.82,-121.15"/>
<text text-anchor="middle" x="910.82" y="-111.62" font-family="fixed" font-size="10.00" fill="#b5e4f4">goal_request:PoseStamped</text>
</g>
<!-- WavefrontFrontierExplorer&#45;&gt;chan_goal_request_PoseStamped -->
<g id="edge10" class="edge">
<title>WavefrontFrontierExplorer&#45;&gt;chan_goal_request_PoseStamped</title>
<path fill="none" stroke="#fff59d" d="M804.55,-116.25C816.36,-115.99 828.42,-115.74 839.96,-115.49"/>
</g>
<!-- FoxgloveBridge -->
<g id="node5" class="node">
<title>FoxgloveBridge</title>
<polygon fill="#0b0f0f" stroke="#5c9ff0" points="118.53,-52 17.88,-52 17.88,-16 118.53,-16 118.53,-52"/>
<text text-anchor="middle" x="68.2" y="-31.23" font-family="fixed" font-size="12.00" fill="#b5e4f4">FoxgloveBridge</text>
</g>
<!-- GO2Connection -->
<g id="node6" class="node">
<title>GO2Connection</title>
<polygon fill="#0b0f0f" stroke="#5c9ff0" points="120.4,-106 16,-106 16,-70 120.4,-70 120.4,-106"/>
<text text-anchor="middle" x="68.2" y="-85.22" font-family="fixed" font-size="12.00" fill="#b5e4f4">GO2Connection</text>
</g>
<!-- chan_lidar_LidarMessage -->
<g id="node12" class="node">
<title>chan_lidar_LidarMessage</title>
<polygon fill="#7986cb" fill-opacity="0.207843" stroke="#7986cb" points="254.98,-98.72 156.4,-98.72 156.4,-77.28 258.55,-77.28 258.55,-95.15 254.98,-98.72"/>
<polyline fill="none" stroke="#7986cb" points="254.98,-98.72 254.98,-95.15"/>
<polyline fill="none" stroke="#7986cb" points="258.55,-95.15 254.98,-95.15"/>
<text text-anchor="middle" x="207.48" y="-85.62" font-family="fixed" font-size="10.00" fill="#b5e4f4">lidar:LidarMessage</text>
</g>
<!-- GO2Connection&#45;&gt;chan_lidar_LidarMessage -->
<g id="edge12" class="edge">
<title>GO2Connection&#45;&gt;chan_lidar_LidarMessage</title>
<path fill="none" stroke="#7986cb" d="M120.71,-88C132.27,-88 144.53,-88 156.05,-88"/>
</g>
<!-- chan_cmd_vel_Twist&#45;&gt;GO2Connection -->
<g id="edge2" class="edge">
<title>chan_cmd_vel_Twist&#45;&gt;GO2Connection</title>
<path fill="none" stroke="#4db6ac" d="M871.51,-24.68C802.21,-22.41 651.4,-18 524.15,-18 350.25,-18 350.25,-18 350.25,-18 270.11,-18 180.82,-45.13 124.84,-65.61"/>
<polygon fill="#4db6ac" stroke="#4db6ac" points="123.67,-62.31 115.52,-69.08 126.11,-68.87 123.67,-62.31"/>
</g>
<!-- chan_global_costmap_OccupancyGrid&#45;&gt;ReplanningAStarPlanner -->
<g id="edge4" class="edge">
<title>chan_global_costmap_OccupancyGrid&#45;&gt;ReplanningAStarPlanner</title>
<path fill="none" stroke="#ff8a65" d="M602.8,-64C612.53,-64 622.53,-64 632.38,-64"/>
<polygon fill="#ff8a65" stroke="#ff8a65" points="632.35,-67.5 642.35,-64 632.35,-60.5 632.35,-67.5"/>
</g>
<!-- chan_global_costmap_OccupancyGrid&#45;&gt;WavefrontFrontierExplorer -->
<g id="edge5" class="edge">
<title>chan_global_costmap_OccupancyGrid&#45;&gt;WavefrontFrontierExplorer</title>
<path fill="none" stroke="#ff8a65" d="M564.79,-75.19C587.28,-81.38 615.99,-89.28 642.6,-96.61"/>
<polygon fill="#ff8a65" stroke="#ff8a65" points="641.43,-99.92 652,-99.2 643.28,-93.17 641.43,-99.92"/>
</g>
<!-- chan_global_map_LidarMessage&#45;&gt;CostMapper -->
<g id="edge7" class="edge">
<title>chan_global_map_LidarMessage&#45;&gt;CostMapper</title>
<path fill="none" stroke="#81d4fa" d="M480.72,-98.78C457.83,-92.59 429.16,-84.82 404.71,-78.2"/>
<polygon fill="#81d4fa" stroke="#81d4fa" points="405.84,-74.88 395.27,-75.65 404.01,-81.64 405.84,-74.88"/>
</g>
<!-- chan_goal_reached_Bool&#45;&gt;WavefrontFrontierExplorer -->
<g id="edge9" class="edge">
<title>chan_goal_reached_Bool&#45;&gt;WavefrontFrontierExplorer</title>
<path fill="none" stroke="#dce775" d="M867.76,-79.22C848.48,-84.36 824.97,-90.63 802.51,-96.61"/>
<polygon fill="#dce775" stroke="#dce775" points="801.82,-93.18 793.06,-99.13 803.62,-99.94 801.82,-93.18"/>
</g>
<!-- chan_goal_request_PoseStamped&#45;&gt;ReplanningAStarPlanner -->
<g id="edge11" class="edge">
<title>chan_goal_request_PoseStamped&#45;&gt;ReplanningAStarPlanner</title>
<path fill="none" stroke="#fff59d" d="M867.76,-102.78C848.48,-97.64 824.97,-91.37 802.51,-85.39"/>
<polygon fill="#fff59d" stroke="#fff59d" points="803.62,-82.06 793.06,-82.87 801.82,-88.82 803.62,-82.06"/>
</g>
<!-- chan_lidar_LidarMessage&#45;&gt;VoxelGridMapper -->
<g id="edge13" class="edge">
<title>chan_lidar_LidarMessage&#45;&gt;VoxelGridMapper</title>
<path fill="none" stroke="#7986cb" d="M258.86,-98.66C266.74,-100.33 274.99,-102.07 283.17,-103.81"/>
<polygon fill="#7986cb" stroke="#7986cb" points="282.25,-107.19 292.76,-105.84 283.7,-100.34 282.25,-107.19"/>
</g>
</g>
</svg>
